PathFileType	4	(X/Y/Z)	D:\TRACE\spotREDO_2-26-24\spot_justBody_Motion_3_3-v60.trc
DataRate	CameraRate	NumFrames	NumMarkers	Units	OrigDataRate	OrigDataStartFrame	OrigNumFrames
100.00	100.00	      28	9	mm	100.00	876	      7000
Frame#	Time	front left toe			Front right toe			aft left toe			aft right toe			Arm			FL body			FR body			AL Body			AR Body			
		X1	Y1	Z1	X2	Y2	Z2	X3	Y3	Z3	X4	Y4	Z4	X5	Y5	Z5	X6	Y6	Z6	X7	Y7	Z7	X8	Y8	Z8	X9	Y9	Z9	

876	8.750	-387.14127	13.85000	-163.22165	175.94394	19.05767	-239.22667	-296.32596	33.15567	355.20663	250.84412	41.86260	294.85986	-156.48315	794.56525	-340.95370	-235.83545	536.18823	-295.45914	-81.15125	539.96991	-319.70029	-108.35275	581.29968	577.99640	31.27832	585.59131	558.54767	
877	8.760	-387.06216	13.96716	-163.21315	176.22015	19.25898	-239.39343	-296.11230	33.03966	355.25369	251.06444	41.82376	294.92154	-156.53853	794.85162	-340.75424	-235.45351	536.51361	-295.29684	-80.84166	540.33795	-319.71826	-107.85946	581.25287	578.01385	32.00809	585.56104	558.46710	
878	8.770	-387.04010	13.95951	-163.13235	176.09949	19.10407	-239.42612	-296.02887	33.02092	355.31509	251.19127	41.66965	294.88885	-156.37553	794.93707	-340.77496	-235.17747	536.75616	-295.32336	-80.39346	540.57538	-319.74890	-107.07629	581.12915	578.03577	32.55471	585.45776	558.42590	
879	8.780	-386.91809	13.97483	-163.12334	176.16669	18.94754	-239.42589	-295.99506	32.92118	355.23755	251.26157	41.44315	294.98709	-155.99939	794.95551	-340.80789	-234.65076	536.84613	-295.53186	-80.00659	540.62756	-319.90445	-106.32524	581.12726	577.95764	33.33281	585.52441	558.26202	
880	8.790	-386.83508	14.12206	-163.24150	176.39015	18.90239	-239.26950	-295.92740	32.87204	355.19928	251.51703	41.37846	295.03223	-155.51451	794.96075	-341.07669	-234.01500	536.65082	-295.80859	-79.66143	540.56073	-320.18106	-105.66630	581.14667	577.71948	34.10761	585.59711	557.98523	
881	8.800	-386.71219	14.22653	-163.32220	176.57799	18.72111	-239.43793	-295.84833	32.90256	355.18646	251.71944	41.41068	295.09769	-155.06139	794.89319	-341.34232	-233.72292	536.63098	-296.03781	-78.95557	540.46722	-320.49649	-105.18768	581.23206	577.54016	34.53120	585.63232	557.68744	
882	8.810	-386.74307	14.32543	-163.37636	176.58691	18.92758	-239.23892	-295.77509	32.87737	355.20700	251.92682	41.28127	295.06308	-154.30243	794.69440	-341.85843	-232.87035	536.32233	-296.45929	-78.39114	540.33514	-320.85916	-104.73428	581.30988	577.16791	34.76497	585.69214	557.40289	
883	8.820	-386.55527	14.34446	-163.39375	176.68634	18.88610	-239.19792	-295.61230	32.73181	355.14279	252.06108	41.11704	295.08957	-153.65662	794.47778	-342.21649	-232.07571	536.05707	-296.66519	-77.65897	540.06299	-321.11270	-104.52676	581.46948	576.79962	35.37044	585.77753	557.20642	
884	8.830	-386.42917	14.40804	-163.53043	176.87581	18.72266	-239.16357	-295.55212	32.55574	355.04376	252.11700	40.91538	295.10764	-152.76653	794.26593	-342.68857	-231.41322	535.89441	-297.02707	-77.07777	539.85413	-321.52359	-104.16715	581.56390	576.47449	35.60212	585.91132	556.85773	
885	8.840	-386.35971	14.56350	-163.56630	176.73396	18.91363	-239.13225	-295.50345	32.57759	355.06619	252.21538	40.94766	295.16013	-152.17989	794.14447	-343.36792	-230.69960	535.80298	-297.53510	-76.30029	539.76642	-321.96237	-103.68629	581.79889	575.91327	35.92503	586.05798	556.48743	
886	8.850	-386.32825	14.78284	-163.51442	176.89233	18.98325	-239.03514	-295.49991	32.59549	355.01547	252.22093	40.93428	295.20572	-151.47699	793.98389	-343.80963	-230.04846	535.78198	-298.17245	-75.47382	539.54205	-322.29965	-103.33810	581.96234	575.59149	36.52029	586.32343	556.08020	
887	8.860	-386.26508	14.88921	-163.50192	176.98975	18.93202	-239.02901	-295.42957	32.58783	354.97861	252.31273	40.91239	295.19299	-150.66464	793.65137	-344.47122	-229.34354	535.46411	-298.72610	-74.82368	539.34625	-322.71014	-102.99451	582.22632	575.14514	36.89499	586.55151	555.77667	
888	8.870	-386.17542	14.88421	-163.54156	177.16351	18.88718	-238.98613	-295.52432	32.52169	354.94672	252.49892	40.90269	295.29767	-150.14052	793.37292	-345.18643	-228.43396	535.18365	-299.11664	-73.84134	539.21875	-323.22226	-103.18592	582.92444	574.75635	37.08153	586.64703	555.18878	
889	8.880	-386.02652	14.85813	-163.65942	177.25948	18.83052	-238.99391	-295.51141	32.45119	354.94495	252.74265	40.81367	295.31860	-149.52003	793.26843	-345.56339	-228.56989	535.58527	-300.49911	-73.21663	539.09174	-323.56039	-102.20117	582.33789	574.16235	37.65735	586.62500	554.80212	
890	8.890	-385.90845	14.92473	-163.65164	177.28239	18.87899	-239.01990	-295.50961	32.42495	354.87061	252.86795	40.74670	295.32584	-148.65631	793.18475	-346.35123	-227.16306	534.88831	-300.16476	-72.51645	538.95197	-324.12369	-101.63397	582.37695	573.45258	37.79100	586.79858	554.26062	
891	8.900	-385.94348	15.13204	-163.62607	177.22705	18.95862	-238.94025	-295.47437	32.44375	354.86676	252.94339	40.79651	295.45230	-148.07878	793.04938	-346.72699	-226.51607	534.88702	-300.77563	-71.95457	539.00256	-324.82617	-101.29418	582.66254	572.97858	38.26620	586.87103	553.60828	
892	8.910	-385.98785	15.21282	-163.58101	177.34261	18.94758	-238.81747	-295.41922	32.47277	354.84128	252.95293	40.79718	295.45779	-147.51630	792.85767	-347.24060	-226.15964	534.73999	-301.33258	-71.45992	538.79596	-325.26331	-100.45044	582.53680	572.44812	38.81295	586.92139	553.12695	
893	8.920	-385.95807	15.20598	-163.55304	177.35287	19.02244	-238.84142	-295.35648	32.37199	354.90796	253.03720	40.64844	295.35147	-146.59669	792.63153	-348.01093	-225.57722	534.46460	-301.95267	-70.77077	538.58942	-325.75558	-99.62606	582.55145	571.80823	39.06983	587.08350	552.44891	
894	8.930	-385.81854	15.20594	-163.55479	177.39841	18.97322	-238.89850	-295.28979	32.29294	354.91647	252.95087	40.50194	295.36829	-146.13823	792.45996	-348.51093	-224.86778	534.29193	-302.61545	-70.31671	538.27869	-326.45047	-99.20539	582.71594	571.22296	39.87978	586.99683	551.62830	
895	8.940	-385.73090	15.21535	-163.51689	177.49611	18.90638	-238.84720	-295.20621	32.13666	354.85031	253.22803	40.36953	295.40924	-145.54958	792.18384	-349.26846	-224.35870	534.09802	-302.81180	-69.98389	538.05103	-327.13083	-98.24898	582.60760	570.56842	40.82196	586.89160	551.18506	
896	8.950	-385.61102	15.40199	-163.48965	177.46434	19.10157	-238.82469	-295.19748	32.18859	354.87366	253.39716	40.22987	295.69376	-145.03529	792.25580	-349.90237	-223.69038	534.05914	-303.33249	-69.48399	538.09717	-327.78448	-97.42261	582.44287	569.95898	41.48306	586.84625	550.45435	
897	8.960	-385.54736	15.60389	-163.46530	177.43965	19.18397	-238.82507	-295.17545	32.25079	354.82834	253.76978	40.17918	295.75308	-144.39915	792.31049	-350.34610	-223.17981	534.19946	-304.11371	-68.95242	538.08923	-328.39444	-96.65784	582.28955	569.50452	42.61741	586.64587	549.81934	
898	8.970	-385.57690	15.73269	-163.53061	177.51794	19.08003	-238.79448	-295.22000	32.25328	354.89786	253.92513	40.13982	295.90347	-143.94011	792.34741	-351.11505	-222.96132	534.34991	-304.60300	-68.38353	538.09595	-329.02847	-95.65288	581.97913	568.82068	43.36915	586.35052	549.21234	
899	8.980	-385.71765	15.78034	-163.53384	177.45390	19.01238	-238.71136	-295.22095	32.02784	354.88586	253.79279	39.86119	296.01831	-143.31787	792.22333	-351.64227	-222.14609	534.15662	-305.40790	-67.77980	537.97333	-329.66010	-95.06349	581.82147	568.14667	43.73908	586.11810	548.50092	
900	8.990	-385.89001	15.83432	-163.55783	177.40733	18.92037	-238.89395	-295.24048	31.79432	354.91113	253.54433	39.54958	295.97659	-142.69057	792.15503	-352.10165	-221.68596	534.05969	-306.00552	-67.32241	537.79083	-330.21417	-94.34405	581.72455	567.52142	45.79331	585.52325	547.86053	
901	9.000	-386.04639	16.01520	-163.59805	177.22972	18.97480	-238.78441	-295.37241	31.77316	354.91068	253.46742	39.42252	295.94211	-142.16660	792.32135	-352.76074	-221.02687	534.10187	-306.65073	-66.30731	537.50159	-330.50296	-93.65925	581.42615	566.85065	46.41070	585.19739	547.14343	
902	9.010	-386.23447	16.35505	-163.60941	176.98718	19.07987	-238.51389	-295.59256	31.83791	354.94501	252.47630	38.85070	295.78165	-141.31819	792.21136	-353.22473	-220.46989	534.28351	-307.19403	-65.63905	537.60150	-331.10156	-93.00282	581.28693	566.35052	47.11135	584.91931	546.65869	
903	9.020	-386.46921	16.63973	-163.71422	176.93901	19.15561	-238.44791	-295.67365	31.83960	354.95233	252.43103	38.71545	295.79260	-140.55098	792.49451	-353.72168	-219.81491	534.41461	-307.80460	-64.97974	537.77826	-331.73825	-92.05174	580.67749	565.59344	49.21131	583.29272	545.95776	
